{"accessors" : [{"bufferView" : 0, "byteOffset" : 0, "componentType" : 5123, "count" : 13548, "type" : "SCALAR", "max" : [13547], "min" : [0]}, {"bufferView" : 1, "byteOffset" : 0, "componentType" : 5126, "count" : 13548, "type" : "VEC3", "max" : [794.0548095703125, 1544.16796875, 1534.405517578125], "min" : [-794.0548095703125, -1544.1680908203125, -1534.405517578125], "name" : "POSITION"}, {"bufferView" : 1, "byteOffset" : 12, "componentType" : 5126, "count" : 13548, "type" : "VEC3", "max" : [0.9998271465301514, 0.997911810874939, 0.999645471572876], "min" : [-0.9996011853218079, -0.9962647557258606, -0.9994921684265137], "name" : "NORMAL"}, {"bufferView" : 1, "byteOffset" : 24, "componentType" : 5126, "count" : 13548, "type" : "VEC4", "max" : [0.995265543460846, 0.7608088850975037, 0.7060416340827942, 1], "min" : [-0.9987266063690186, -0.9969930052757263, -0.9317816495895386, 1], "name" : "TANGENT"}, {"bufferView" : 1, "byteOffset" : 40, "componentType" : 5126, "count" : 13548, "type" : "VEC2", "max" : [0.9853779673576355, -0.00869784876704216], "min" : [0.010941371321678162, -0.9862398505210876], "name" : "TEXCOORD_0"}, {"bufferView" : 1, "byteOffset" : 48, "componentType" : 5126, "count" : 13548, "type" : "VEC2", "max" : [0.9853779673576355, -0.00869784876704216], "min" : [0.010941371321678162, -0.9862398505210876], "name" : "TEXCOORD_1"}], "asset" : {"generator" : "Aspose.3D 22.10", "version" : "2.0"}, "buffers" : [{"uri" : "data:application/octet-stream;base64,", "byteLength" : 785792}], "bufferViews" : [{"buffer" : 0, "byteOffset" : 0, "byteLength" : 27096, "target" : 34963}, {"buffer" : 0, "byteOffset" : 27100, "byteLength" : 758688, "byteStride" : 56, "target" : 34962}], "materials" : [{"name" : "Cliff_LP_default", "pbrMetallicRoughness" : {"baseColorFactor" : [0.5879999995231628, 0.5879999995231628, 0.5879999995231628, 1], "metallicFactor" : 0, "roughnessFactor" : 0}, "emissiveFactor" : [0, 0, 0], "alphaMode" : "OPAQUE", "doubleSided" : false}], "meshes" : [{"primitives" : [{"attributes" : {"POSITION" : 1, "NORMAL" : 2, "TANGENT" : 3, "TEXCOORD_0" : 4, "TEXCOORD_1" : 5}, "indices" : 0, "material" : 0, "mode" : 4}], "name" : ""}], "nodes" : [{"matrix" : [1, 0, 0, 0, 0, 6.123233995736766E-17, -1, 0, 0, 1, 6.123233995736766E-17, 0, 0, 0, 0, 1], "mesh" : 0, "name" : "SM_Cliff"}], "scene" : 0, "scenes" : [{"nodes" : [0]}]}