{"accessors" : [{"bufferView" : 0, "byteOffset" : 0, "componentType" : 5123, "count" : 8208, "type" : "SCALAR", "max" : [8207], "min" : [0]}, {"bufferView" : 1, "byteOffset" : 0, "componentType" : 5126, "count" : 8208, "type" : "VEC3", "max" : [788.8735961914062, 727.9608764648438, 986.4525146484375], "min" : [-788.8735961914062, -727.9608764648438, -986.4525146484375], "name" : "POSITION"}, {"bufferView" : 1, "byteOffset" : 12, "componentType" : 5126, "count" : 8208, "type" : "VEC3", "max" : [0.9996864795684814, 0.9972755312919617, 0.9992101788520813], "min" : [-0.9986097812652588, -0.9996044039726257, -0.9877926707267761], "name" : "NORMAL"}, {"bufferView" : 1, "byteOffset" : 24, "componentType" : 5126, "count" : 8208, "type" : "VEC4", "max" : [0.9996768236160278, 0.9170804023742676, 0.738540530204773, 1], "min" : [-0.9938225746154785, -0.9769237637519836, -0.9588800668716431, 1], "name" : "TANGENT"}, {"bufferView" : 1, "byteOffset" : 40, "componentType" : 5126, "count" : 8208, "type" : "VEC2", "max" : [0.9960938096046448, -0.00390625], "min" : [0.00390625, -0.9758992195129395], "name" : "TEXCOORD_0"}, {"bufferView" : 1, "byteOffset" : 48, "componentType" : 5126, "count" : 8208, "type" : "VEC2", "max" : [0.9960938096046448, -0.00390625], "min" : [0.00390625, -0.9758992195129395], "name" : "TEXCOORD_1"}], "asset" : {"generator" : "Aspose.3D 22.10", "version" : "2.0"}, "buffers" : [{"uri" : "data:application/octet-stream;base64,", "byteLength" : 476072}], "bufferViews" : [{"buffer" : 0, "byteOffset" : 0, "byteLength" : 16416, "target" : 34963}, {"buffer" : 0, "byteOffset" : 16420, "byteLength" : 459648, "byteStride" : 56, "target" : 34962}], "images" : [{"uri" : "C:\\Users\\sargi\\Desktop\\Feudal Japan\\Export\\Rock Textures\\RockCliff_Medium_LP_default_BaseColor.png"}], "materials" : [{"name" : "Rock_MediumSize", "pbrMetallicRoughness" : {"baseColorFactor" : [0.5879999995231628, 0.5879999995231628, 0.5879999995231628, 1], "baseColorTexture" : {"index" : 0, "texCoord" : 0}, "metallicFactor" : 0, "roughnessFactor" : 0}, "emissiveFactor" : [0, 0, 0], "alphaMode" : "OPAQUE", "doubleSided" : false}], "meshes" : [{"primitives" : [{"attributes" : {"POSITION" : 1, "NORMAL" : 2, "TANGENT" : 3, "TEXCOORD_0" : 4, "TEXCOORD_1" : 5}, "indices" : 0, "material" : 0, "mode" : 4}], "name" : ""}], "nodes" : [{"matrix" : [1, 0, 0, 0, 0, 6.123233995736766E-17, -1, 0, 0, 1, 6.123233995736766E-17, 0, 0, 0, 0, 1], "mesh" : 0, "name" : "SM_Rock_MediumSize"}], "samplers" : [{"magFilter" : 9729, "minFilter" : 9729, "wrapS" : 10497, "wrapT" : 10497}], "scene" : 0, "scenes" : [{"nodes" : [0]}], "textures" : [{"sampler" : 0, "source" : 0, "name" : "Map #1"}]}